{"title":"Thank You [2011] 1 CD Super Cam Rip XviD [DAYN]","uid":6304449,"size":798917930,"categoryP":"video","categoryS":"movies","magnet":"?xt=urn:btih:c136a843ce17a113aa35950954de9ad9c0aa78a9&amp;dn=Thank+You+%5B2011%5D+1+CD+Super+Cam+Rip+XviD+%5BDAYN%5D+&amp;tr=udp%3A%2F%2Ftracker.openbittorrent.com%3A80&amp;tr=udp%3A%2F%2Fopen.demonii.com%3A1337&amp;tr=udp%3A%2F%2Ftracker.coppersurfer.tk%3A6969&amp;tr=udp%3A%2F%2Fexodus.desync.com%3A6969","seeders":0,"leechers":0,"uploader":"arihantkatariya","files":2,"time":1302274265,"description":"Directed By Anees Bazmee\n\nA Ronnie Screwvala Production\n\nAkshay Kumar as Kishen, Sonam Kapoor as Sajana &amp; Bobby Deol as Raj\n\nIn\n\nThank You (2011) Cam Rip\n*FIRST ON NET*\n*DAYN EXCLUSIVE*\n\n\nFormat                           : AVI\nFormat/Info                      : Audio Video Interleave\nFile size                        : 734 MiB\nDuration                         : 2h 7mn\nOverall bit rate                 : 808 Kbps\nWriting application              : Lavf52.39.1\n\nVideo\nID                               : 0\nFormat                           : xvid\nCodec ID                         : xvid\nDuration                         : 2h 7mn\nBit rate                         : 732 Kbps\nWidth                            : 624 pixels\nHeight                           : 272 pixels\nDisplay aspect ratio             : 2.25:1\nFrame rate                       : 25.000 fps\nBits/(Pixel*Frame)               : 0.173\nStream size                      : 665 MiB (91%)\n\nAudio\nID                               : 1\nFormat                           : MPEG Audio\nFormat version                   : Version 1\nFormat profile                   : Layer 3\nMode                             : Joint stereo\nMode extension                   : MS Stereo\nCodec ID                         : 55\nCodec ID/Hint                    : MP3\nDuration                         : 2h 7mn\nBit rate mode                    : Constant\nBit rate                         : 64.0 Kbps\nChannel(s)                       : 2 channels\nSampling rate                    : 44.1 KHz\nCompression mode                 : Lossy\nStream size                      : 58.1 MiB (8%)\nAlignment                        : Aligned on interleaves\nInterleave, duration             : 26 ms (0.65 video frame)\nInterleave, preload duration     : 26 ms\n\n","torrent":{"xt":"urn:btih:c136a843ce17a113aa35950954de9ad9c0aa78a9","amp;dn":"Thank+You+%5B2011%5D+1+CD+Super+Cam+Rip+XviD+%5BDAYN%5D+","amp;tr":["udp%3A%2F%2Ftracker.openbittorrent.com%3A80","udp%3A%2F%2Fopen.demonii.com%3A1337","udp%3A%2F%2Ftracker.coppersurfer.tk%3A6969","udp%3A%2F%2Fexodus.desync.com%3A6969"],"infoHash":"c136a843ce17a113aa35950954de9ad9c0aa78a9","infoHashBuffer":{"type":"Buffer","data":[193,54,168,67,206,23,161,19,170,53,149,9,84,222,154,217,192,170,120,169]},"announce":[],"urlList":[]}}